<svg width="11" height="12" viewBox="0 0 11 12" fill="none" xmlns="http://www.w3.org/2000/svg">
<path fill-rule="evenodd" clip-rule="evenodd" d="M7.95 0H6.63C5.622 0 5.118 -5.36442e-08 4.7328 0.1962C4.39412 0.368769 4.11877 0.644123 3.9462 0.9828C3.75 1.368 3.75 1.872 3.75 2.88V6.12C3.75 7.128 3.75 7.632 3.9462 8.0172C4.11877 8.35588 4.39412 8.63123 4.7328 8.8038C5.118 9 5.622 9 6.63 9H8.07C9.078 9 9.582 9 9.9672 8.8038C10.3059 8.63123 10.5812 8.35588 10.7538 8.0172C10.95 7.632 10.95 7.128 10.95 6.12V3L7.95 0ZM7.83 3.6C7.662 3.6 7.578 3.6 7.5138 3.5676C7.45742 3.53871 7.41163 3.49271 7.383 3.4362C7.35 3.372 7.35 3.288 7.35 3.12V0.9L10.05 3.6H7.83Z" fill="#CDCDCD"/>
<path d="M3.15 3H2.55C2.07261 3 1.61477 3.18964 1.27721 3.52721C0.939642 3.86477 0.75 4.32261 0.75 4.8V10.2C0.75 10.6774 0.939642 11.1352 1.27721 11.4728C1.61477 11.8104 2.07261 12 2.55 12H6.15C6.62739 12 7.08523 11.8104 7.42279 11.4728C7.76036 11.1352 7.95 10.6774 7.95 10.2V9.6H6.99C5.646 9.6 4.974 9.6 4.4604 9.3384C4.00883 9.10831 3.64169 8.74117 3.4116 8.2896C3.15 7.776 3.15 7.104 3.15 5.76V3Z" fill="#CDCDCD"/>
</svg>
