<svg width="16" height="12" viewBox="0 0 16 12" fill="none" xmlns="http://www.w3.org/2000/svg">
<path d="M15.8153 1.58042V7.66218C15.8037 7.68825 15.7938 7.71481 15.7857 7.74175C15.6333 8.38766 15.1839 8.84007 14.4434 9.1045C14.0532 9.24344 13.6396 9.24873 13.2245 9.24224C13.0212 9.23959 12.9766 9.20377 12.9766 9.03502C12.9766 7.92516 12.9739 6.8153 12.9766 5.70544C12.9766 5.36265 12.9366 5.02707 12.8118 4.6987C12.7588 4.55904 12.8233 4.49197 13.0032 4.49053C13.2103 4.48861 13.4174 4.49341 13.6245 4.48861C13.7439 4.48562 13.8572 4.44513 13.9407 4.37564C14.0241 4.30615 14.0711 4.21308 14.0718 4.11601C14.0754 3.88524 13.8691 3.72634 13.5535 3.72418C13.1443 3.72153 12.7348 3.72778 12.326 3.71961C12.2407 3.71554 12.1605 3.6856 12.1011 3.63572C11.631 3.18795 11.0065 2.86485 10.3083 2.70807C10.2095 2.68403 10.1269 2.64701 10.1435 2.5535C10.16 2.45999 10.2485 2.44076 10.3535 2.44148C10.679 2.44388 11.0044 2.44148 11.3298 2.44148C12.0745 2.44148 12.8192 2.44292 13.5635 2.44148C13.8842 2.44148 14.0934 2.26215 14.0706 2.01792C14.0514 1.81311 13.8387 1.67441 13.5407 1.67441C10.9816 1.67441 8.42251 1.67385 5.86339 1.67273C5.75571 1.6719 5.64861 1.65978 5.54476 1.63667C4.8708 1.48907 4.19922 1.33402 3.52379 1.19027C3.41073 1.167 3.29208 1.16857 3.18001 1.19484C2.97883 1.24532 2.87173 1.39941 2.88416 1.56936C2.89658 1.73931 3.03416 1.86696 3.26729 1.91936C5.51793 2.42417 7.76838 2.92898 10.0186 3.43379C11.2254 3.70423 12.0266 4.55375 12.0269 5.56722C12.0269 7.23005 12.0263 8.89279 12.0251 10.5555C12.0266 10.6714 12.0115 10.7871 11.9801 10.9002C11.7434 11.7081 10.8109 12.1502 9.78579 11.9535C7.49383 11.5141 5.20009 11.0822 2.90842 10.6386C1.77294 10.4189 1.0552 9.83647 0.741598 8.92445C0.712012 8.84103 0.6916 8.75618 0.666748 8.6718V1.58042C0.67853 1.56356 0.687863 1.54565 0.694558 1.52705C0.881833 0.64195 1.78744 0.00468752 2.89303 0.00324521C6.46515 -0.00108174 10.0373 -0.00108174 13.6094 0.00324521C14.6153 0.00324521 15.467 0.541469 15.7372 1.32537C15.767 1.4095 15.7898 1.49508 15.8153 1.58042ZM10.4458 7.69655C10.4458 7.56226 10.4132 7.42929 10.3499 7.30524C10.2866 7.18119 10.1938 7.06851 10.0768 6.97364C9.95983 6.87877 9.82098 6.80357 9.66819 6.75235C9.5154 6.70114 9.35168 6.6749 9.1864 6.67516C9.02115 6.67538 8.85757 6.70205 8.70502 6.75365C8.55246 6.80525 8.41391 6.88077 8.29728 6.97589C8.18065 7.07101 8.08823 7.18387 8.0253 7.30801C7.96237 7.43216 7.93016 7.56517 7.93051 7.69944C7.9307 7.83364 7.96343 7.9665 8.02684 8.09042C8.09025 8.21435 8.18308 8.3269 8.30004 8.42167C8.41699 8.51643 8.55578 8.59154 8.70848 8.64271C8.86117 8.69388 9.02478 8.7201 9.18995 8.71988C9.35511 8.71969 9.5186 8.69307 9.6711 8.64154C9.8236 8.59001 9.96211 8.51458 10.0787 8.41956C10.1954 8.32453 10.2878 8.21177 10.3508 8.08772C10.4138 7.96367 10.4461 7.83075 10.4458 7.69655Z" fill="#EF6236"/>
</svg>
