<svg width="20" height="19" viewBox="0 0 20 19" fill="none" xmlns="http://www.w3.org/2000/svg">
<path fill-rule="evenodd" clip-rule="evenodd" d="M8.22225 2.86541C6.86375 2.86541 5.56089 3.40507 4.60029 4.36567C3.63969 5.32627 3.10002 6.62913 3.10002 7.98763C3.10002 8.66029 3.23251 9.32636 3.48993 9.94782C3.74735 10.5693 4.12465 11.1339 4.60029 11.6096C5.07593 12.0852 5.6406 12.4625 6.26206 12.7199C6.88351 12.9774 7.54959 13.1098 8.22225 13.1098C8.89491 13.1098 9.56098 12.9774 10.1824 12.7199C10.8039 12.4625 11.3686 12.0852 11.8442 11.6096C12.3198 11.1339 12.6971 10.5693 12.9546 9.94782C13.212 9.32636 13.3445 8.66029 13.3445 7.98763C13.3445 6.62913 12.8048 5.32627 11.8442 4.36567C10.8836 3.40507 9.58074 2.86541 8.22225 2.86541ZM3.04465 2.81003C4.41784 1.43685 6.28027 0.665405 8.22225 0.665405C10.1642 0.665405 12.0267 1.43685 13.3998 2.81003C14.773 4.18322 15.5445 6.04565 15.5445 7.98763C15.5445 8.94919 15.3551 9.90135 14.9871 10.7897C14.7604 11.3371 14.4686 11.8537 14.1189 12.3286L18.7778 16.9876C19.2074 17.4172 19.2074 18.1136 18.7778 18.5432C18.3483 18.9728 17.6518 18.9728 17.2222 18.5432L12.5633 13.8843C12.0883 14.2339 11.5717 14.5257 11.0243 14.7525C10.136 15.1205 9.18381 15.3098 8.22225 15.3099C7.26068 15.3098 6.30853 15.1205 5.42015 14.7525C4.53178 14.3845 3.72458 13.8452 3.04465 13.1652C2.36472 12.4853 1.82537 11.6781 1.4574 10.7897C1.08942 9.90135 0.900024 8.9492 0.900024 7.98763C0.900024 6.04565 1.67147 4.18322 3.04465 2.81003Z" fill="#737373"/>
</svg>
