<svg width="46" height="44" viewBox="0 0 46 44" fill="none" xmlns="http://www.w3.org/2000/svg">
<path d="M45.7224 6.19147V28.2052C45.6881 28.2996 45.6588 28.3957 45.6348 28.4932C45.1836 30.8312 43.8527 32.4687 41.6596 33.4259C40.504 33.9288 39.2791 33.9479 38.0498 33.9244C37.4479 33.9149 37.3156 33.7852 37.3156 33.1744C37.3156 29.1571 37.3077 25.1398 37.3156 21.1225C37.3156 19.8818 37.1973 18.6671 36.8275 17.4785C36.6707 16.973 36.8617 16.7302 37.3944 16.725C38.0077 16.718 38.6211 16.7354 39.2344 16.718C39.588 16.7072 39.9237 16.5607 40.1708 16.3091C40.4178 16.0576 40.5571 15.7207 40.5592 15.3694C40.5697 14.5341 39.959 13.9589 39.0241 13.9511C37.8124 13.9415 36.5997 13.9642 35.3889 13.9346C35.1364 13.9198 34.8988 13.8115 34.723 13.6309C33.3305 12.0101 31.4812 10.8407 29.4134 10.2732C29.1207 10.1861 28.8763 10.0521 28.9254 9.71367C28.9744 9.3752 29.2364 9.30559 29.5474 9.3082C30.5112 9.3169 31.475 9.3082 32.4388 9.3082C34.6441 9.3082 36.8494 9.31342 39.0539 9.3082C40.0037 9.3082 40.6231 8.6591 40.5556 7.77507C40.4987 7.03374 39.8687 6.53169 38.9864 6.53169C31.4076 6.53169 23.8287 6.52966 16.2498 6.5256C15.9309 6.52262 15.6137 6.47875 15.3062 6.39508C13.3102 5.86083 11.3213 5.29961 9.32104 4.77929C8.9862 4.69505 8.63482 4.70075 8.30293 4.79582C7.70714 4.97854 7.38996 5.53628 7.42676 6.15145C7.46356 6.76662 7.87098 7.22864 8.5614 7.41833C15.2267 9.24555 21.8915 11.0728 28.5556 12.9C32.1295 13.8789 34.5022 16.9538 34.5031 20.6222C34.5031 26.6411 34.5013 32.6596 34.4978 38.6778C34.5023 39.0975 34.4576 39.5162 34.3646 39.9256C33.6637 42.85 30.902 44.4501 27.8661 43.7384C21.0784 42.1478 14.2854 40.5842 7.49861 38.9789C4.13586 38.1836 2.01027 36.0753 1.08153 32.7742C0.993915 32.4722 0.933462 32.1651 0.859863 31.8597V6.19147C0.894757 6.13047 0.922396 6.06565 0.942224 5.99831C1.49684 2.79457 4.1788 0.487914 7.45305 0.482694C18.0319 0.467032 28.6108 0.467032 39.1897 0.482694C42.1687 0.482694 44.6912 2.43087 45.4911 5.26829C45.5796 5.57283 45.6471 5.88259 45.7224 6.19147ZM29.8208 28.3296C29.8208 27.8435 29.7243 27.3622 29.5368 26.9132C29.3492 26.4642 29.0744 26.0563 28.7279 25.7129C28.3815 25.3695 27.9703 25.0974 27.5178 24.912C27.0653 24.7266 26.5804 24.6316 26.0909 24.6325C25.6016 24.6333 25.1171 24.7299 24.6653 24.9167C24.2135 25.1034 23.8032 25.3768 23.4578 25.7211C23.1124 26.0654 22.8387 26.4739 22.6523 26.9233C22.466 27.3726 22.3706 27.8541 22.3716 28.3401C22.3722 28.8258 22.4691 29.3067 22.6569 29.7553C22.8447 30.2039 23.1196 30.6113 23.466 30.9543C23.8123 31.2973 24.2234 31.5692 24.6756 31.7544C25.1278 31.9396 25.6123 32.0345 26.1015 32.0337C26.5906 32.033 27.0748 31.9367 27.5264 31.7501C27.978 31.5636 28.3882 31.2906 28.7336 30.9466C29.079 30.6027 29.3528 30.1945 29.5393 29.7455C29.7258 29.2965 29.8215 28.8154 29.8208 28.3296Z" fill="url(#paint0_linear_741_92)"/>
<defs>
<linearGradient id="paint0_linear_741_92" x1="45.7224" y1="0.470949" x2="1.62387" y2="44.6688" gradientUnits="userSpaceOnUse">
<stop stop-color="#EF6236"/>
<stop offset="1" stop-color="#F7BDAB"/>
</linearGradient>
</defs>
</svg>
